<svg width="60" height="60" viewBox="0 0 24 24" fill="none" xmlns="http://www.w3.org/2000/svg">
<path d="M12.04 2c-5.46 0-9.91 4.45-9.91 9.91 0 1.75.46 3.45 1.32 4.95L2.05 22l5.25-1.38c1.45.79 3.08 1.21 4.74 1.21 5.46 0 9.91-4.45 9.91-9.91 0-2.65-1.03-5.14-2.9-7.01A9.816 9.816 0 0012.04 2zm0 3.66c3.44 0 6.24 2.8 6.24 6.24 0 3.44-2.8 6.24-6.24 6.24-3.44 0-6.24-2.8-6.24-6.24 0-3.44 2.8-6.24 6.24-6.24zm2.95 8.1c-.2-.1-1.2-.6-1.4-.65-.2-.05-.35-.1-.5.1-.15.2-.3.65-.35.75-.15.1-.3.05-.45-.05-.15-.1-.6-.75-.65-.85-.05-.1-.1-.15-.2-.05-.1.05-.2.2-.3.4-.1.15-.25.4-.35.45-.1.05-.15.1-.35.05-.2-.05-.75-.75-1.4-.8-.15-.05-.25-.05-.35.05-.1.1-.15.35-.15.55-.05.2-.1.45-.1.65 0 .2.05.45.05.75.05 3.05 0 4.7-2.55 4.7-4.7 0-.7-.15-1.35-.45-1.9-.05-.1-.15-.15-.25-.1z" fill="#25D366"/>
</svg>
